<svg version="1.1" baseProfile="full" shape-rendering="crispEdges" viewBox="0 0 900 900" xmlns="http://www.w3.org/2000/svg"><rect x="0" y="0" width="900" height="900" fill="#FFFFFF" />
<rect x="0" y="0" width="24.3243243243243" height="24.3243243243243" fill="#000000" />
<rect x="0" y="24.3243243243243" width="24.3243243243243" height="24.3243243243243" fill="#000000" />
<rect x="0" y="48.6486486486486" width="24.3243243243243" height="24.3243243243243" fill="#000000" />
<rect x="0" y="72.972972972973" width="24.3243243243243" height="24.3243243243243" fill="#000000" />
<rect x="0" y="97.2972972972973" width="24.3243243243243" height="24.3243243243243" fill="#000000" />
<rect x="0" y="121.621621621622" width="24.3243243243243" height="24.3243243243243" fill="#000000" />
<rect x="0" y="145.945945945946" width="24.3243243243243" height="24.3243243243243" fill="#000000" />
<rect x="0" y="194.594594594595" width="24.3243243243243" height="24.3243243243243" fill="#000000" />
<rect x="0" y="218.918918918919" width="24.3243243243243" height="24.3243243243243" fill="#000000" />
<rect x="0" y="243.243243243243" width="24.3243243243243" height="24.3243243243243" fill="#000000" />
<rect x="0" y="291.891891891892" width="24.3243243243243" height="24.3243243243243" fill="#000000" />
<rect x="0" y="316.216216216216" width="24.3243243243243" height="24.3243243243243" fill="#000000" />
<rect x="0" y="437.837837837838" width="24.3243243243243" height="24.3243243243243" fill="#000000" />
<rect x="0" y="462.162162162162" width="24.3243243243243" height="24.3243243243243" fill="#000000" />
<rect x="0" y="486.486486486486" width="24.3243243243243" height="24.3243243243243" fill="#000000" />
<rect x="0" y="559.459459459459" width="24.3243243243243" height="24.3243243243243" fill="#000000" />
<rect x="0" y="608.108108108108" width="24.3243243243243" height="24.3243243243243" fill="#000000" />
<rect x="0" y="681.081081081081" width="24.3243243243243" height="24.3243243243243" fill="#000000" />
<rect x="0" y="729.72972972973" width="24.3243243243243" height="24.3243243243243" fill="#000000" />
<rect x="0" y="754.054054054054" width="24.3243243243243" height="24.3243243243243" fill="#000000" />
<rect x="0" y="778.378378378378" width="24.3243243243243" height="24.3243243243243" fill="#000000" />
<rect x="0" y="802.702702702703" width="24.3243243243243" height="24.3243243243243" fill="#000000" />
<rect x="0" y="827.027027027027" width="24.3243243243243" height="24.3243243243243" fill="#000000" />
<rect x="0" y="851.351351351351" width="24.3243243243243" height="24.3243243243243" fill="#000000" />
<rect x="0" y="875.675675675676" width="24.3243243243243" height="24.3243243243243" fill="#000000" />
<rect x="24.3243243243243" y="0" width="24.3243243243243" height="24.3243243243243" fill="#000000" />
<rect x="24.3243243243243" y="145.945945945946" width="24.3243243243243" height="24.3243243243243" fill="#000000" />
<rect x="24.3243243243243" y="194.594594594595" width="24.3243243243243" height="24.3243243243243" fill="#000000" />
<rect x="24.3243243243243" y="218.918918918919" width="24.3243243243243" height="24.3243243243243" fill="#000000" />
<rect x="24.3243243243243" y="340.540540540541" width="24.3243243243243" height="24.3243243243243" fill="#000000" />
<rect x="24.3243243243243" y="364.864864864865" width="24.3243243243243" height="24.3243243243243" fill="#000000" />
<rect x="24.3243243243243" y="437.837837837838" width="24.3243243243243" height="24.3243243243243" fill="#000000" />
<rect x="24.3243243243243" y="486.486486486486" width="24.3243243243243" height="24.3243243243243" fill="#000000" />
<rect x="24.3243243243243" y="510.810810810811" width="24.3243243243243" height="24.3243243243243" fill="#000000" />
<rect x="24.3243243243243" y="559.459459459459" width="24.3243243243243" height="24.3243243243243" fill="#000000" />
<rect x="24.3243243243243" y="583.783783783784" width="24.3243243243243" height="24.3243243243243" fill="#000000" />
<rect x="24.3243243243243" y="681.081081081081" width="24.3243243243243" height="24.3243243243243" fill="#000000" />
<rect x="24.3243243243243" y="729.72972972973" width="24.3243243243243" height="24.3243243243243" fill="#000000" />
<rect x="24.3243243243243" y="875.675675675676" width="24.3243243243243" height="24.3243243243243" fill="#000000" />
<rect x="48.6486486486486" y="0" width="24.3243243243243" height="24.3243243243243" fill="#000000" />
<rect x="48.6486486486486" y="48.6486486486486" width="24.3243243243243" height="24.3243243243243" fill="#000000" />
<rect x="48.6486486486486" y="72.972972972973" width="24.3243243243243" height="24.3243243243243" fill="#000000" />
<rect x="48.6486486486486" y="97.2972972972973" width="24.3243243243243" height="24.3243243243243" fill="#000000" />
<rect x="48.6486486486486" y="145.945945945946" width="24.3243243243243" height="24.3243243243243" fill="#000000" />
<rect x="48.6486486486486" y="243.243243243243" width="24.3243243243243" height="24.3243243243243" fill="#000000" />
<rect x="48.6486486486486" y="291.891891891892" width="24.3243243243243" height="24.3243243243243" fill="#000000" />
<rect x="48.6486486486486" y="340.540540540541" width="24.3243243243243" height="24.3243243243243" fill="#000000" />
<rect x="48.6486486486486" y="389.189189189189" width="24.3243243243243" height="24.3243243243243" fill="#000000" />
<rect x="48.6486486486486" y="413.513513513513" width="24.3243243243243" height="24.3243243243243" fill="#000000" />
<rect x="48.6486486486486" y="437.837837837838" width="24.3243243243243" height="24.3243243243243" fill="#000000" />
<rect x="48.6486486486486" y="486.486486486486" width="24.3243243243243" height="24.3243243243243" fill="#000000" />
<rect x="48.6486486486486" y="535.135135135135" width="24.3243243243243" height="24.3243243243243" fill="#000000" />
<rect x="48.6486486486486" y="632.432432432432" width="24.3243243243243" height="24.3243243243243" fill="#000000" />
<rect x="48.6486486486486" y="656.756756756757" width="24.3243243243243" height="24.3243243243243" fill="#000000" />
<rect x="48.6486486486486" y="729.72972972973" width="24.3243243243243" height="24.3243243243243" fill="#000000" />
<rect x="48.6486486486486" y="778.378378378378" width="24.3243243243243" height="24.3243243243243" fill="#000000" />
<rect x="48.6486486486486" y="802.702702702703" width="24.3243243243243" height="24.3243243243243" fill="#000000" />
<rect x="48.6486486486486" y="827.027027027027" width="24.3243243243243" height="24.3243243243243" fill="#000000" />
<rect x="48.6486486486486" y="875.675675675676" width="24.3243243243243" height="24.3243243243243" fill="#000000" />
<rect x="72.972972972973" y="0" width="24.3243243243243" height="24.3243243243243" fill="#000000" />
<rect x="72.972972972973" y="48.6486486486486" width="24.3243243243243" height="24.3243243243243" fill="#000000" />
<rect x="72.972972972973" y="72.972972972973" width="24.3243243243243" height="24.3243243243243" fill="#000000" />
<rect x="72.972972972973" y="97.2972972972973" width="24.3243243243243" height="24.3243243243243" fill="#000000" />
<rect x="72.972972972973" y="145.945945945946" width="24.3243243243243" height="24.3243243243243" fill="#000000" />
<rect x="72.972972972973" y="243.243243243243" width="24.3243243243243" height="24.3243243243243" fill="#000000" />
<rect x="72.972972972973" y="267.567567567568" width="24.3243243243243" height="24.3243243243243" fill="#000000" />
<rect x="72.972972972973" y="364.864864864865" width="24.3243243243243" height="24.3243243243243" fill="#000000" />
<rect x="72.972972972973" y="389.189189189189" width="24.3243243243243" height="24.3243243243243" fill="#000000" />
<rect x="72.972972972973" y="462.162162162162" width="24.3243243243243" height="24.3243243243243" fill="#000000" />
<rect x="72.972972972973" y="486.486486486486" width="24.3243243243243" height="24.3243243243243" fill="#000000" />
<rect x="72.972972972973" y="510.810810810811" width="24.3243243243243" height="24.3243243243243" fill="#000000" />
<rect x="72.972972972973" y="608.108108108108" width="24.3243243243243" height="24.3243243243243" fill="#000000" />
<rect x="72.972972972973" y="632.432432432432" width="24.3243243243243" height="24.3243243243243" fill="#000000" />
<rect x="72.972972972973" y="729.72972972973" width="24.3243243243243" height="24.3243243243243" fill="#000000" />
<rect x="72.972972972973" y="778.378378378378" width="24.3243243243243" height="24.3243243243243" fill="#000000" />
<rect x="72.972972972973" y="802.702702702703" width="24.3243243243243" height="24.3243243243243" fill="#000000" />
<rect x="72.972972972973" y="827.027027027027" width="24.3243243243243" height="24.3243243243243" fill="#000000" />
<rect x="72.972972972973" y="875.675675675676" width="24.3243243243243" height="24.3243243243243" fill="#000000" />
<rect x="97.2972972972973" y="0" width="24.3243243243243" height="24.3243243243243" fill="#000000" />
<rect x="97.2972972972973" y="48.6486486486486" width="24.3243243243243" height="24.3243243243243" fill="#000000" />
<rect x="97.2972972972973" y="72.972972972973" width="24.3243243243243" height="24.3243243243243" fill="#000000" />
<rect x="97.2972972972973" y="97.2972972972973" width="24.3243243243243" height="24.3243243243243" fill="#000000" />
<rect x="97.2972972972973" y="145.945945945946" width="24.3243243243243" height="24.3243243243243" fill="#000000" />
<rect x="97.2972972972973" y="194.594594594595" width="24.3243243243243" height="24.3243243243243" fill="#000000" />
<rect x="97.2972972972973" y="218.918918918919" width="24.3243243243243" height="24.3243243243243" fill="#000000" />
<rect x="97.2972972972973" y="243.243243243243" width="24.3243243243243" height="24.3243243243243" fill="#000000" />
<rect x="97.2972972972973" y="267.567567567568" width="24.3243243243243" height="24.3243243243243" fill="#000000" />
<rect x="97.2972972972973" y="291.891891891892" width="24.3243243243243" height="24.3243243243243" fill="#000000" />
<rect x="97.2972972972973" y="340.540540540541" width="24.3243243243243" height="24.3243243243243" fill="#000000" />
<rect x="97.2972972972973" y="364.864864864865" width="24.3243243243243" height="24.3243243243243" fill="#000000" />
<rect x="97.2972972972973" y="389.189189189189" width="24.3243243243243" height="24.3243243243243" fill="#000000" />
<rect x="97.2972972972973" y="486.486486486486" width="24.3243243243243" height="24.3243243243243" fill="#000000" />
<rect x="97.2972972972973" y="559.459459459459" width="24.3243243243243" height="24.3243243243243" fill="#000000" />
<rect x="97.2972972972973" y="583.783783783784" width="24.3243243243243" height="24.3243243243243" fill="#000000" />
<rect x="97.2972972972973" y="632.432432432432" width="24.3243243243243" height="24.3243243243243" fill="#000000" />
<rect x="97.2972972972973" y="729.72972972973" width="24.3243243243243" height="24.3243243243243" fill="#000000" />
<rect x="97.2972972972973" y="778.378378378378" width="24.3243243243243" height="24.3243243243243" fill="#000000" />
<rect x="97.2972972972973" y="802.702702702703" width="24.3243243243243" height="24.3243243243243" fill="#000000" />
<rect x="97.2972972972973" y="827.027027027027" width="24.3243243243243" height="24.3243243243243" fill="#000000" />
<rect x="97.2972972972973" y="875.675675675676" width="24.3243243243243" height="24.3243243243243" fill="#000000" />
<rect x="121.621621621622" y="0" width="24.3243243243243" height="24.3243243243243" fill="#000000" />
<rect x="121.621621621622" y="145.945945945946" width="24.3243243243243" height="24.3243243243243" fill="#000000" />
<rect x="121.621621621622" y="194.594594594595" width="24.3243243243243" height="24.3243243243243" fill="#000000" />
<rect x="121.621621621622" y="316.216216216216" width="24.3243243243243" height="24.3243243243243" fill="#000000" />
<rect x="121.621621621622" y="364.864864864865" width="24.3243243243243" height="24.3243243243243" fill="#000000" />
<rect x="121.621621621622" y="437.837837837838" width="24.3243243243243" height="24.3243243243243" fill="#000000" />
<rect x="121.621621621622" y="486.486486486486" width="24.3243243243243" height="24.3243243243243" fill="#000000" />
<rect x="121.621621621622" y="535.135135135135" width="24.3243243243243" height="24.3243243243243" fill="#000000" />
<rect x="121.621621621622" y="559.459459459459" width="24.3243243243243" height="24.3243243243243" fill="#000000" />
<rect x="121.621621621622" y="632.432432432432" width="24.3243243243243" height="24.3243243243243" fill="#000000" />
<rect x="121.621621621622" y="729.72972972973" width="24.3243243243243" height="24.3243243243243" fill="#000000" />
<rect x="121.621621621622" y="875.675675675676" width="24.3243243243243" height="24.3243243243243" fill="#000000" />
<rect x="145.945945945946" y="0" width="24.3243243243243" height="24.3243243243243" fill="#000000" />
<rect x="145.945945945946" y="24.3243243243243" width="24.3243243243243" height="24.3243243243243" fill="#000000" />
<rect x="145.945945945946" y="48.6486486486486" width="24.3243243243243" height="24.3243243243243" fill="#000000" />
<rect x="145.945945945946" y="72.972972972973" width="24.3243243243243" height="24.3243243243243" fill="#000000" />
<rect x="145.945945945946" y="97.2972972972973" width="24.3243243243243" height="24.3243243243243" fill="#000000" />
<rect x="145.945945945946" y="121.621621621622" width="24.3243243243243" height="24.3243243243243" fill="#000000" />
<rect x="145.945945945946" y="145.945945945946" width="24.3243243243243" height="24.3243243243243" fill="#000000" />
<rect x="145.945945945946" y="194.594594594595" width="24.3243243243243" height="24.3243243243243" fill="#000000" />
<rect x="145.945945945946" y="243.243243243243" width="24.3243243243243" height="24.3243243243243" fill="#000000" />
<rect x="145.945945945946" y="291.891891891892" width="24.3243243243243" height="24.3243243243243" fill="#000000" />
<rect x="145.945945945946" y="340.540540540541" width="24.3243243243243" height="24.3243243243243" fill="#000000" />
<rect x="145.945945945946" y="389.189189189189" width="24.3243243243243" height="24.3243243243243" fill="#000000" />
<rect x="145.945945945946" y="437.837837837838" width="24.3243243243243" height="24.3243243243243" fill="#000000" />
<rect x="145.945945945946" y="486.486486486486" width="24.3243243243243" height="24.3243243243243" fill="#000000" />
<rect x="145.945945945946" y="535.135135135135" width="24.3243243243243" height="24.3243243243243" fill="#000000" />
<rect x="145.945945945946" y="583.783783783784" width="24.3243243243243" height="24.3243243243243" fill="#000000" />
<rect x="145.945945945946" y="632.432432432432" width="24.3243243243243" height="24.3243243243243" fill="#000000" />
<rect x="145.945945945946" y="681.081081081081" width="24.3243243243243" height="24.3243243243243" fill="#000000" />
<rect x="145.945945945946" y="729.72972972973" width="24.3243243243243" height="24.3243243243243" fill="#000000" />
<rect x="145.945945945946" y="754.054054054054" width="24.3243243243243" height="24.3243243243243" fill="#000000" />
<rect x="145.945945945946" y="778.378378378378" width="24.3243243243243" height="24.3243243243243" fill="#000000" />
<rect x="145.945945945946" y="802.702702702703" width="24.3243243243243" height="24.3243243243243" fill="#000000" />
<rect x="145.945945945946" y="827.027027027027" width="24.3243243243243" height="24.3243243243243" fill="#000000" />
<rect x="145.945945945946" y="851.351351351351" width="24.3243243243243" height="24.3243243243243" fill="#000000" />
<rect x="145.945945945946" y="875.675675675676" width="24.3243243243243" height="24.3243243243243" fill="#000000" />
<rect x="170.27027027027" y="243.243243243243" width="24.3243243243243" height="24.3243243243243" fill="#000000" />
<rect x="170.27027027027" y="291.891891891892" width="24.3243243243243" height="24.3243243243243" fill="#000000" />
<rect x="170.27027027027" y="316.216216216216" width="24.3243243243243" height="24.3243243243243" fill="#000000" />
<rect x="170.27027027027" y="340.540540540541" width="24.3243243243243" height="24.3243243243243" fill="#000000" />
<rect x="170.27027027027" y="413.513513513513" width="24.3243243243243" height="24.3243243243243" fill="#000000" />
<rect x="170.27027027027" y="462.162162162162" width="24.3243243243243" height="24.3243243243243" fill="#000000" />
<rect x="170.27027027027" y="510.810810810811" width="24.3243243243243" height="24.3243243243243" fill="#000000" />
<rect x="170.27027027027" y="535.135135135135" width="24.3243243243243" height="24.3243243243243" fill="#000000" />
<rect x="170.27027027027" y="559.459459459459" width="24.3243243243243" height="24.3243243243243" fill="#000000" />
<rect x="170.27027027027" y="583.783783783784" width="24.3243243243243" height="24.3243243243243" fill="#000000" />
<rect x="170.27027027027" y="681.081081081081" width="24.3243243243243" height="24.3243243243243" fill="#000000" />
<rect x="194.594594594595" y="0" width="24.3243243243243" height="24.3243243243243" fill="#000000" />
<rect x="194.594594594595" y="24.3243243243243" width="24.3243243243243" height="24.3243243243243" fill="#000000" />
<rect x="194.594594594595" y="48.6486486486486" width="24.3243243243243" height="24.3243243243243" fill="#000000" />
<rect x="194.594594594595" y="72.972972972973" width="24.3243243243243" height="24.3243243243243" fill="#000000" />
<rect x="194.594594594595" y="121.621621621622" width="24.3243243243243" height="24.3243243243243" fill="#000000" />
<rect x="194.594594594595" y="145.945945945946" width="24.3243243243243" height="24.3243243243243" fill="#000000" />
<rect x="194.594594594595" y="243.243243243243" width="24.3243243243243" height="24.3243243243243" fill="#000000" />
<rect x="194.594594594595" y="267.567567567568" width="24.3243243243243" height="24.3243243243243" fill="#000000" />
<rect x="194.594594594595" y="316.216216216216" width="24.3243243243243" height="24.3243243243243" fill="#000000" />
<rect x="194.594594594595" y="413.513513513513" width="24.3243243243243" height="24.3243243243243" fill="#000000" />
<rect x="194.594594594595" y="510.810810810811" width="24.3243243243243" height="24.3243243243243" fill="#000000" />
<rect x="194.594594594595" y="583.783783783784" width="24.3243243243243" height="24.3243243243243" fill="#000000" />
<rect x="194.594594594595" y="632.432432432432" width="24.3243243243243" height="24.3243243243243" fill="#000000" />
<rect x="194.594594594595" y="681.081081081081" width="24.3243243243243" height="24.3243243243243" fill="#000000" />
<rect x="194.594594594595" y="705.405405405405" width="24.3243243243243" height="24.3243243243243" fill="#000000" />
<rect x="194.594594594595" y="754.054054054054" width="24.3243243243243" height="24.3243243243243" fill="#000000" />
<rect x="194.594594594595" y="778.378378378378" width="24.3243243243243" height="24.3243243243243" fill="#000000" />
<rect x="194.594594594595" y="851.351351351351" width="24.3243243243243" height="24.3243243243243" fill="#000000" />
<rect x="194.594594594595" y="875.675675675676" width="24.3243243243243" height="24.3243243243243" fill="#000000" />
<rect x="218.918918918919" y="0" width="24.3243243243243" height="24.3243243243243" fill="#000000" />
<rect x="218.918918918919" y="24.3243243243243" width="24.3243243243243" height="24.3243243243243" fill="#000000" />
<rect x="218.918918918919" y="72.972972972973" width="24.3243243243243" height="24.3243243243243" fill="#000000" />
<rect x="218.918918918919" y="170.27027027027" width="24.3243243243243" height="24.3243243243243" fill="#000000" />
<rect x="218.918918918919" y="218.918918918919" width="24.3243243243243" height="24.3243243243243" fill="#000000" />
<rect x="218.918918918919" y="364.864864864865" width="24.3243243243243" height="24.3243243243243" fill="#000000" />
<rect x="218.918918918919" y="389.189189189189" width="24.3243243243243" height="24.3243243243243" fill="#000000" />
<rect x="218.918918918919" y="486.486486486486" width="24.3243243243243" height="24.3243243243243" fill="#000000" />
<rect x="218.918918918919" y="559.459459459459" width="24.3243243243243" height="24.3243243243243" fill="#000000" />
<rect x="218.918918918919" y="608.108108108108" width="24.3243243243243" height="24.3243243243243" fill="#000000" />
<rect x="218.918918918919" y="729.72972972973" width="24.3243243243243" height="24.3243243243243" fill="#000000" />
<rect x="218.918918918919" y="778.378378378378" width="24.3243243243243" height="24.3243243243243" fill="#000000" />
<rect x="218.918918918919" y="802.702702702703" width="24.3243243243243" height="24.3243243243243" fill="#000000" />
<rect x="218.918918918919" y="827.027027027027" width="24.3243243243243" height="24.3243243243243" fill="#000000" />
<rect x="243.243243243243" y="0" width="24.3243243243243" height="24.3243243243243" fill="#000000" />
<rect x="243.243243243243" y="24.3243243243243" width="24.3243243243243" height="24.3243243243243" fill="#000000" />
<rect x="243.243243243243" y="48.6486486486486" width="24.3243243243243" height="24.3243243243243" fill="#000000" />
<rect x="243.243243243243" y="145.945945945946" width="24.3243243243243" height="24.3243243243243" fill="#000000" />
<rect x="243.243243243243" y="218.918918918919" width="24.3243243243243" height="24.3243243243243" fill="#000000" />
<rect x="243.243243243243" y="267.567567567568" width="24.3243243243243" height="24.3243243243243" fill="#000000" />
<rect x="243.243243243243" y="340.540540540541" width="24.3243243243243" height="24.3243243243243" fill="#000000" />
<rect x="243.243243243243" y="389.189189189189" width="24.3243243243243" height="24.3243243243243" fill="#000000" />
<rect x="243.243243243243" y="413.513513513513" width="24.3243243243243" height="24.3243243243243" fill="#000000" />
<rect x="243.243243243243" y="486.486486486486" width="24.3243243243243" height="24.3243243243243" fill="#000000" />
<rect x="243.243243243243" y="535.135135135135" width="24.3243243243243" height="24.3243243243243" fill="#000000" />
<rect x="243.243243243243" y="632.432432432432" width="24.3243243243243" height="24.3243243243243" fill="#000000" />
<rect x="243.243243243243" y="681.081081081081" width="24.3243243243243" height="24.3243243243243" fill="#000000" />
<rect x="243.243243243243" y="705.405405405405" width="24.3243243243243" height="24.3243243243243" fill="#000000" />
<rect x="243.243243243243" y="729.72972972973" width="24.3243243243243" height="24.3243243243243" fill="#000000" />
<rect x="243.243243243243" y="778.378378378378" width="24.3243243243243" height="24.3243243243243" fill="#000000" />
<rect x="243.243243243243" y="851.351351351351" width="24.3243243243243" height="24.3243243243243" fill="#000000" />
<rect x="267.567567567568" y="48.6486486486486" width="24.3243243243243" height="24.3243243243243" fill="#000000" />
<rect x="267.567567567568" y="72.972972972973" width="24.3243243243243" height="24.3243243243243" fill="#000000" />
<rect x="267.567567567568" y="121.621621621622" width="24.3243243243243" height="24.3243243243243" fill="#000000" />
<rect x="267.567567567568" y="194.594594594595" width="24.3243243243243" height="24.3243243243243" fill="#000000" />
<rect x="267.567567567568" y="243.243243243243" width="24.3243243243243" height="24.3243243243243" fill="#000000" />
<rect x="267.567567567568" y="267.567567567568" width="24.3243243243243" height="24.3243243243243" fill="#000000" />
<rect x="267.567567567568" y="389.189189189189" width="24.3243243243243" height="24.3243243243243" fill="#000000" />
<rect x="267.567567567568" y="437.837837837838" width="24.3243243243243" height="24.3243243243243" fill="#000000" />
<rect x="267.567567567568" y="462.162162162162" width="24.3243243243243" height="24.3243243243243" fill="#000000" />
<rect x="267.567567567568" y="583.783783783784" width="24.3243243243243" height="24.3243243243243" fill="#000000" />
<rect x="267.567567567568" y="632.432432432432" width="24.3243243243243" height="24.3243243243243" fill="#000000" />
<rect x="267.567567567568" y="656.756756756757" width="24.3243243243243" height="24.3243243243243" fill="#000000" />
<rect x="267.567567567568" y="778.378378378378" width="24.3243243243243" height="24.3243243243243" fill="#000000" />
<rect x="267.567567567568" y="827.027027027027" width="24.3243243243243" height="24.3243243243243" fill="#000000" />
<rect x="267.567567567568" y="851.351351351351" width="24.3243243243243" height="24.3243243243243" fill="#000000" />
<rect x="291.891891891892" y="0" width="24.3243243243243" height="24.3243243243243" fill="#000000" />
<rect x="291.891891891892" y="121.621621621622" width="24.3243243243243" height="24.3243243243243" fill="#000000" />
<rect x="291.891891891892" y="145.945945945946" width="24.3243243243243" height="24.3243243243243" fill="#000000" />
<rect x="291.891891891892" y="170.27027027027" width="24.3243243243243" height="24.3243243243243" fill="#000000" />
<rect x="291.891891891892" y="218.918918918919" width="24.3243243243243" height="24.3243243243243" fill="#000000" />
<rect x="291.891891891892" y="243.243243243243" width="24.3243243243243" height="24.3243243243243" fill="#000000" />
<rect x="291.891891891892" y="291.891891891892" width="24.3243243243243" height="24.3243243243243" fill="#000000" />
<rect x="291.891891891892" y="364.864864864865" width="24.3243243243243" height="24.3243243243243" fill="#000000" />
<rect x="291.891891891892" y="413.513513513513" width="24.3243243243243" height="24.3243243243243" fill="#000000" />
<rect x="291.891891891892" y="437.837837837838" width="24.3243243243243" height="24.3243243243243" fill="#000000" />
<rect x="291.891891891892" y="486.486486486486" width="24.3243243243243" height="24.3243243243243" fill="#000000" />
<rect x="291.891891891892" y="559.459459459459" width="24.3243243243243" height="24.3243243243243" fill="#000000" />
<rect x="291.891891891892" y="608.108108108108" width="24.3243243243243" height="24.3243243243243" fill="#000000" />
<rect x="291.891891891892" y="632.432432432432" width="24.3243243243243" height="24.3243243243243" fill="#000000" />
<rect x="291.891891891892" y="681.081081081081" width="24.3243243243243" height="24.3243243243243" fill="#000000" />
<rect x="291.891891891892" y="754.054054054054" width="24.3243243243243" height="24.3243243243243" fill="#000000" />
<rect x="291.891891891892" y="802.702702702703" width="24.3243243243243" height="24.3243243243243" fill="#000000" />
<rect x="291.891891891892" y="827.027027027027" width="24.3243243243243" height="24.3243243243243" fill="#000000" />
<rect x="291.891891891892" y="875.675675675676" width="24.3243243243243" height="24.3243243243243" fill="#000000" />
<rect x="316.216216216216" y="48.6486486486486" width="24.3243243243243" height="24.3243243243243" fill="#000000" />
<rect x="316.216216216216" y="97.2972972972973" width="24.3243243243243" height="24.3243243243243" fill="#000000" />
<rect x="316.216216216216" y="121.621621621622" width="24.3243243243243" height="24.3243243243243" fill="#000000" />
<rect x="316.216216216216" y="194.594594594595" width="24.3243243243243" height="24.3243243243243" fill="#000000" />
<rect x="316.216216216216" y="243.243243243243" width="24.3243243243243" height="24.3243243243243" fill="#000000" />
<rect x="316.216216216216" y="267.567567567568" width="24.3243243243243" height="24.3243243243243" fill="#000000" />
<rect x="316.216216216216" y="291.891891891892" width="24.3243243243243" height="24.3243243243243" fill="#000000" />
<rect x="316.216216216216" y="316.216216216216" width="24.3243243243243" height="24.3243243243243" fill="#000000" />
<rect x="316.216216216216" y="389.189189189189" width="24.3243243243243" height="24.3243243243243" fill="#000000" />
<rect x="316.216216216216" y="437.837837837838" width="24.3243243243243" height="24.3243243243243" fill="#000000" />
<rect x="316.216216216216" y="462.162162162162" width="24.3243243243243" height="24.3243243243243" fill="#000000" />
<rect x="316.216216216216" y="486.486486486486" width="24.3243243243243" height="24.3243243243243" fill="#000000" />
<rect x="316.216216216216" y="510.810810810811" width="24.3243243243243" height="24.3243243243243" fill="#000000" />
<rect x="316.216216216216" y="583.783783783784" width="24.3243243243243" height="24.3243243243243" fill="#000000" />
<rect x="316.216216216216" y="632.432432432432" width="24.3243243243243" height="24.3243243243243" fill="#000000" />
<rect x="316.216216216216" y="656.756756756757" width="24.3243243243243" height="24.3243243243243" fill="#000000" />
<rect x="316.216216216216" y="681.081081081081" width="24.3243243243243" height="24.3243243243243" fill="#000000" />
<rect x="316.216216216216" y="705.405405405405" width="24.3243243243243" height="24.3243243243243" fill="#000000" />
<rect x="316.216216216216" y="778.378378378378" width="24.3243243243243" height="24.3243243243243" fill="#000000" />
<rect x="316.216216216216" y="827.027027027027" width="24.3243243243243" height="24.3243243243243" fill="#000000" />
<rect x="316.216216216216" y="851.351351351351" width="24.3243243243243" height="24.3243243243243" fill="#000000" />
<rect x="316.216216216216" y="875.675675675676" width="24.3243243243243" height="24.3243243243243" fill="#000000" />
<rect x="340.540540540541" y="72.972972972973" width="24.3243243243243" height="24.3243243243243" fill="#000000" />
<rect x="340.540540540541" y="97.2972972972973" width="24.3243243243243" height="24.3243243243243" fill="#000000" />
<rect x="340.540540540541" y="121.621621621622" width="24.3243243243243" height="24.3243243243243" fill="#000000" />
<rect x="340.540540540541" y="145.945945945946" width="24.3243243243243" height="24.3243243243243" fill="#000000" />
<rect x="340.540540540541" y="170.27027027027" width="24.3243243243243" height="24.3243243243243" fill="#000000" />
<rect x="340.540540540541" y="194.594594594595" width="24.3243243243243" height="24.3243243243243" fill="#000000" />
<rect x="340.540540540541" y="243.243243243243" width="24.3243243243243" height="24.3243243243243" fill="#000000" />
<rect x="340.540540540541" y="316.216216216216" width="24.3243243243243" height="24.3243243243243" fill="#000000" />
<rect x="340.540540540541" y="364.864864864865" width="24.3243243243243" height="24.3243243243243" fill="#000000" />
<rect x="340.540540540541" y="389.189189189189" width="24.3243243243243" height="24.3243243243243" fill="#000000" />
<rect x="340.540540540541" y="437.837837837838" width="24.3243243243243" height="24.3243243243243" fill="#000000" />
<rect x="340.540540540541" y="510.810810810811" width="24.3243243243243" height="24.3243243243243" fill="#000000" />
<rect x="340.540540540541" y="559.459459459459" width="24.3243243243243" height="24.3243243243243" fill="#000000" />
<rect x="340.540540540541" y="583.783783783784" width="24.3243243243243" height="24.3243243243243" fill="#000000" />
<rect x="340.540540540541" y="632.432432432432" width="24.3243243243243" height="24.3243243243243" fill="#000000" />
<rect x="340.540540540541" y="705.405405405405" width="24.3243243243243" height="24.3243243243243" fill="#000000" />
<rect x="340.540540540541" y="754.054054054054" width="24.3243243243243" height="24.3243243243243" fill="#000000" />
<rect x="340.540540540541" y="778.378378378378" width="24.3243243243243" height="24.3243243243243" fill="#000000" />
<rect x="340.540540540541" y="827.027027027027" width="24.3243243243243" height="24.3243243243243" fill="#000000" />
<rect x="364.864864864865" y="48.6486486486486" width="24.3243243243243" height="24.3243243243243" fill="#000000" />
<rect x="364.864864864865" y="72.972972972973" width="24.3243243243243" height="24.3243243243243" fill="#000000" />
<rect x="364.864864864865" y="121.621621621622" width="24.3243243243243" height="24.3243243243243" fill="#000000" />
<rect x="364.864864864865" y="194.594594594595" width="24.3243243243243" height="24.3243243243243" fill="#000000" />
<rect x="364.864864864865" y="243.243243243243" width="24.3243243243243" height="24.3243243243243" fill="#000000" />
<rect x="364.864864864865" y="267.567567567568" width="24.3243243243243" height="24.3243243243243" fill="#000000" />
<rect x="364.864864864865" y="389.189189189189" width="24.3243243243243" height="24.3243243243243" fill="#000000" />
<rect x="364.864864864865" y="437.837837837838" width="24.3243243243243" height="24.3243243243243" fill="#000000" />
<rect x="364.864864864865" y="462.162162162162" width="24.3243243243243" height="24.3243243243243" fill="#000000" />
<rect x="364.864864864865" y="583.783783783784" width="24.3243243243243" height="24.3243243243243" fill="#000000" />
<rect x="364.864864864865" y="632.432432432432" width="24.3243243243243" height="24.3243243243243" fill="#000000" />
<rect x="364.864864864865" y="656.756756756757" width="24.3243243243243" height="24.3243243243243" fill="#000000" />
<rect x="364.864864864865" y="681.081081081081" width="24.3243243243243" height="24.3243243243243" fill="#000000" />
<rect x="364.864864864865" y="729.72972972973" width="24.3243243243243" height="24.3243243243243" fill="#000000" />
<rect x="364.864864864865" y="802.702702702703" width="24.3243243243243" height="24.3243243243243" fill="#000000" />
<rect x="364.864864864865" y="827.027027027027" width="24.3243243243243" height="24.3243243243243" fill="#000000" />
<rect x="364.864864864865" y="851.351351351351" width="24.3243243243243" height="24.3243243243243" fill="#000000" />
<rect x="389.189189189189" y="24.3243243243243" width="24.3243243243243" height="24.3243243243243" fill="#000000" />
<rect x="389.189189189189" y="48.6486486486486" width="24.3243243243243" height="24.3243243243243" fill="#000000" />
<rect x="389.189189189189" y="72.972972972973" width="24.3243243243243" height="24.3243243243243" fill="#000000" />
<rect x="389.189189189189" y="97.2972972972973" width="24.3243243243243" height="24.3243243243243" fill="#000000" />
<rect x="389.189189189189" y="145.945945945946" width="24.3243243243243" height="24.3243243243243" fill="#000000" />
<rect x="389.189189189189" y="194.594594594595" width="24.3243243243243" height="24.3243243243243" fill="#000000" />
<rect x="389.189189189189" y="267.567567567568" width="24.3243243243243" height="24.3243243243243" fill="#000000" />
<rect x="389.189189189189" y="316.216216216216" width="24.3243243243243" height="24.3243243243243" fill="#000000" />
<rect x="389.189189189189" y="340.540540540541" width="24.3243243243243" height="24.3243243243243" fill="#000000" />
<rect x="389.189189189189" y="389.189189189189" width="24.3243243243243" height="24.3243243243243" fill="#000000" />
<rect x="389.189189189189" y="462.162162162162" width="24.3243243243243" height="24.3243243243243" fill="#000000" />
<rect x="389.189189189189" y="510.810810810811" width="24.3243243243243" height="24.3243243243243" fill="#000000" />
<rect x="389.189189189189" y="535.135135135135" width="24.3243243243243" height="24.3243243243243" fill="#000000" />
<rect x="389.189189189189" y="632.432432432432" width="24.3243243243243" height="24.3243243243243" fill="#000000" />
<rect x="389.189189189189" y="705.405405405405" width="24.3243243243243" height="24.3243243243243" fill="#000000" />
<rect x="389.189189189189" y="729.72972972973" width="24.3243243243243" height="24.3243243243243" fill="#000000" />
<rect x="389.189189189189" y="778.378378378378" width="24.3243243243243" height="24.3243243243243" fill="#000000" />
<rect x="389.189189189189" y="875.675675675676" width="24.3243243243243" height="24.3243243243243" fill="#000000" />
<rect x="413.513513513513" y="0" width="24.3243243243243" height="24.3243243243243" fill="#000000" />
<rect x="413.513513513513" y="48.6486486486486" width="24.3243243243243" height="24.3243243243243" fill="#000000" />
<rect x="413.513513513513" y="97.2972972972973" width="24.3243243243243" height="24.3243243243243" fill="#000000" />
<rect x="413.513513513513" y="121.621621621622" width="24.3243243243243" height="24.3243243243243" fill="#000000" />
<rect x="413.513513513513" y="170.27027027027" width="24.3243243243243" height="24.3243243243243" fill="#000000" />
<rect x="413.513513513513" y="194.594594594595" width="24.3243243243243" height="24.3243243243243" fill="#000000" />
<rect x="413.513513513513" y="218.918918918919" width="24.3243243243243" height="24.3243243243243" fill="#000000" />
<rect x="413.513513513513" y="267.567567567568" width="24.3243243243243" height="24.3243243243243" fill="#000000" />
<rect x="413.513513513513" y="291.891891891892" width="24.3243243243243" height="24.3243243243243" fill="#000000" />
<rect x="413.513513513513" y="364.864864864865" width="24.3243243243243" height="24.3243243243243" fill="#000000" />
<rect x="413.513513513513" y="413.513513513513" width="24.3243243243243" height="24.3243243243243" fill="#000000" />
<rect x="413.513513513513" y="462.162162162162" width="24.3243243243243" height="24.3243243243243" fill="#000000" />
<rect x="413.513513513513" y="486.486486486486" width="24.3243243243243" height="24.3243243243243" fill="#000000" />
<rect x="413.513513513513" y="559.459459459459" width="24.3243243243243" height="24.3243243243243" fill="#000000" />
<rect x="413.513513513513" y="583.783783783784" width="24.3243243243243" height="24.3243243243243" fill="#000000" />
<rect x="413.513513513513" y="608.108108108108" width="24.3243243243243" height="24.3243243243243" fill="#000000" />
<rect x="413.513513513513" y="632.432432432432" width="24.3243243243243" height="24.3243243243243" fill="#000000" />
<rect x="413.513513513513" y="656.756756756757" width="24.3243243243243" height="24.3243243243243" fill="#000000" />
<rect x="413.513513513513" y="705.405405405405" width="24.3243243243243" height="24.3243243243243" fill="#000000" />
<rect x="413.513513513513" y="754.054054054054" width="24.3243243243243" height="24.3243243243243" fill="#000000" />
<rect x="413.513513513513" y="778.378378378378" width="24.3243243243243" height="24.3243243243243" fill="#000000" />
<rect x="413.513513513513" y="851.351351351351" width="24.3243243243243" height="24.3243243243243" fill="#000000" />
<rect x="437.837837837838" y="24.3243243243243" width="24.3243243243243" height="24.3243243243243" fill="#000000" />
<rect x="437.837837837838" y="48.6486486486486" width="24.3243243243243" height="24.3243243243243" fill="#000000" />
<rect x="437.837837837838" y="72.972972972973" width="24.3243243243243" height="24.3243243243243" fill="#000000" />
<rect x="437.837837837838" y="97.2972972972973" width="24.3243243243243" height="24.3243243243243" fill="#000000" />
<rect x="437.837837837838" y="145.945945945946" width="24.3243243243243" height="24.3243243243243" fill="#000000" />
<rect x="437.837837837838" y="170.27027027027" width="24.3243243243243" height="24.3243243243243" fill="#000000" />
<rect x="437.837837837838" y="218.918918918919" width="24.3243243243243" height="24.3243243243243" fill="#000000" />
<rect x="437.837837837838" y="267.567567567568" width="24.3243243243243" height="24.3243243243243" fill="#000000" />
<rect x="437.837837837838" y="291.891891891892" width="24.3243243243243" height="24.3243243243243" fill="#000000" />
<rect x="437.837837837838" y="340.540540540541" width="24.3243243243243" height="24.3243243243243" fill="#000000" />
<rect x="437.837837837838" y="364.864864864865" width="24.3243243243243" height="24.3243243243243" fill="#000000" />
<rect x="437.837837837838" y="413.513513513513" width="24.3243243243243" height="24.3243243243243" fill="#000000" />
<rect x="437.837837837838" y="462.162162162162" width="24.3243243243243" height="24.3243243243243" fill="#000000" />
<rect x="437.837837837838" y="510.810810810811" width="24.3243243243243" height="24.3243243243243" fill="#000000" />
<rect x="437.837837837838" y="535.135135135135" width="24.3243243243243" height="24.3243243243243" fill="#000000" />
<rect x="437.837837837838" y="559.459459459459" width="24.3243243243243" height="24.3243243243243" fill="#000000" />
<rect x="437.837837837838" y="656.756756756757" width="24.3243243243243" height="24.3243243243243" fill="#000000" />
<rect x="437.837837837838" y="705.405405405405" width="24.3243243243243" height="24.3243243243243" fill="#000000" />
<rect x="437.837837837838" y="851.351351351351" width="24.3243243243243" height="24.3243243243243" fill="#000000" />
<rect x="462.162162162162" y="24.3243243243243" width="24.3243243243243" height="24.3243243243243" fill="#000000" />
<rect x="462.162162162162" y="97.2972972972973" width="24.3243243243243" height="24.3243243243243" fill="#000000" />
<rect x="462.162162162162" y="121.621621621622" width="24.3243243243243" height="24.3243243243243" fill="#000000" />
<rect x="462.162162162162" y="170.27027027027" width="24.3243243243243" height="24.3243243243243" fill="#000000" />
<rect x="462.162162162162" y="194.594594594595" width="24.3243243243243" height="24.3243243243243" fill="#000000" />
<rect x="462.162162162162" y="267.567567567568" width="24.3243243243243" height="24.3243243243243" fill="#000000" />
<rect x="462.162162162162" y="364.864864864865" width="24.3243243243243" height="24.3243243243243" fill="#000000" />
<rect x="462.162162162162" y="389.189189189189" width="24.3243243243243" height="24.3243243243243" fill="#000000" />
<rect x="462.162162162162" y="510.810810810811" width="24.3243243243243" height="24.3243243243243" fill="#000000" />
<rect x="462.162162162162" y="559.459459459459" width="24.3243243243243" height="24.3243243243243" fill="#000000" />
<rect x="462.162162162162" y="583.783783783784" width="24.3243243243243" height="24.3243243243243" fill="#000000" />
<rect x="462.162162162162" y="754.054054054054" width="24.3243243243243" height="24.3243243243243" fill="#000000" />
<rect x="462.162162162162" y="778.378378378378" width="24.3243243243243" height="24.3243243243243" fill="#000000" />
<rect x="462.162162162162" y="875.675675675676" width="24.3243243243243" height="24.3243243243243" fill="#000000" />
<rect x="486.486486486486" y="72.972972972973" width="24.3243243243243" height="24.3243243243243" fill="#000000" />
<rect x="486.486486486486" y="121.621621621622" width="24.3243243243243" height="24.3243243243243" fill="#000000" />
<rect x="486.486486486486" y="145.945945945946" width="24.3243243243243" height="24.3243243243243" fill="#000000" />
<rect x="486.486486486486" y="243.243243243243" width="24.3243243243243" height="24.3243243243243" fill="#000000" />
<rect x="486.486486486486" y="291.891891891892" width="24.3243243243243" height="24.3243243243243" fill="#000000" />
<rect x="486.486486486486" y="340.540540540541" width="24.3243243243243" height="24.3243243243243" fill="#000000" />
<rect x="486.486486486486" y="437.837837837838" width="24.3243243243243" height="24.3243243243243" fill="#000000" />
<rect x="486.486486486486" y="486.486486486486" width="24.3243243243243" height="24.3243243243243" fill="#000000" />
<rect x="486.486486486486" y="535.135135135135" width="24.3243243243243" height="24.3243243243243" fill="#000000" />
<rect x="486.486486486486" y="632.432432432432" width="24.3243243243243" height="24.3243243243243" fill="#000000" />
<rect x="486.486486486486" y="656.756756756757" width="24.3243243243243" height="24.3243243243243" fill="#000000" />
<rect x="486.486486486486" y="681.081081081081" width="24.3243243243243" height="24.3243243243243" fill="#000000" />
<rect x="486.486486486486" y="705.405405405405" width="24.3243243243243" height="24.3243243243243" fill="#000000" />
<rect x="486.486486486486" y="754.054054054054" width="24.3243243243243" height="24.3243243243243" fill="#000000" />
<rect x="486.486486486486" y="802.702702702703" width="24.3243243243243" height="24.3243243243243" fill="#000000" />
<rect x="486.486486486486" y="851.351351351351" width="24.3243243243243" height="24.3243243243243" fill="#000000" />
<rect x="510.810810810811" y="0" width="24.3243243243243" height="24.3243243243243" fill="#000000" />
<rect x="510.810810810811" y="24.3243243243243" width="24.3243243243243" height="24.3243243243243" fill="#000000" />
<rect x="510.810810810811" y="48.6486486486486" width="24.3243243243243" height="24.3243243243243" fill="#000000" />
<rect x="510.810810810811" y="121.621621621622" width="24.3243243243243" height="24.3243243243243" fill="#000000" />
<rect x="510.810810810811" y="170.27027027027" width="24.3243243243243" height="24.3243243243243" fill="#000000" />
<rect x="510.810810810811" y="194.594594594595" width="24.3243243243243" height="24.3243243243243" fill="#000000" />
<rect x="510.810810810811" y="243.243243243243" width="24.3243243243243" height="24.3243243243243" fill="#000000" />
<rect x="510.810810810811" y="267.567567567568" width="24.3243243243243" height="24.3243243243243" fill="#000000" />
<rect x="510.810810810811" y="291.891891891892" width="24.3243243243243" height="24.3243243243243" fill="#000000" />
<rect x="510.810810810811" y="340.540540540541" width="24.3243243243243" height="24.3243243243243" fill="#000000" />
<rect x="510.810810810811" y="364.864864864865" width="24.3243243243243" height="24.3243243243243" fill="#000000" />
<rect x="510.810810810811" y="413.513513513513" width="24.3243243243243" height="24.3243243243243" fill="#000000" />
<rect x="510.810810810811" y="437.837837837838" width="24.3243243243243" height="24.3243243243243" fill="#000000" />
<rect x="510.810810810811" y="462.162162162162" width="24.3243243243243" height="24.3243243243243" fill="#000000" />
<rect x="510.810810810811" y="486.486486486486" width="24.3243243243243" height="24.3243243243243" fill="#000000" />
<rect x="510.810810810811" y="559.459459459459" width="24.3243243243243" height="24.3243243243243" fill="#000000" />
<rect x="510.810810810811" y="583.783783783784" width="24.3243243243243" height="24.3243243243243" fill="#000000" />
<rect x="510.810810810811" y="632.432432432432" width="24.3243243243243" height="24.3243243243243" fill="#000000" />
<rect x="510.810810810811" y="656.756756756757" width="24.3243243243243" height="24.3243243243243" fill="#000000" />
<rect x="510.810810810811" y="729.72972972973" width="24.3243243243243" height="24.3243243243243" fill="#000000" />
<rect x="510.810810810811" y="754.054054054054" width="24.3243243243243" height="24.3243243243243" fill="#000000" />
<rect x="510.810810810811" y="827.027027027027" width="24.3243243243243" height="24.3243243243243" fill="#000000" />
<rect x="510.810810810811" y="851.351351351351" width="24.3243243243243" height="24.3243243243243" fill="#000000" />
<rect x="535.135135135135" y="72.972972972973" width="24.3243243243243" height="24.3243243243243" fill="#000000" />
<rect x="535.135135135135" y="97.2972972972973" width="24.3243243243243" height="24.3243243243243" fill="#000000" />
<rect x="535.135135135135" y="121.621621621622" width="24.3243243243243" height="24.3243243243243" fill="#000000" />
<rect x="535.135135135135" y="145.945945945946" width="24.3243243243243" height="24.3243243243243" fill="#000000" />
<rect x="535.135135135135" y="170.27027027027" width="24.3243243243243" height="24.3243243243243" fill="#000000" />
<rect x="535.135135135135" y="218.918918918919" width="24.3243243243243" height="24.3243243243243" fill="#000000" />
<rect x="535.135135135135" y="243.243243243243" width="24.3243243243243" height="24.3243243243243" fill="#000000" />
<rect x="535.135135135135" y="267.567567567568" width="24.3243243243243" height="24.3243243243243" fill="#000000" />
<rect x="535.135135135135" y="291.891891891892" width="24.3243243243243" height="24.3243243243243" fill="#000000" />
<rect x="535.135135135135" y="316.216216216216" width="24.3243243243243" height="24.3243243243243" fill="#000000" />
<rect x="535.135135135135" y="340.540540540541" width="24.3243243243243" height="24.3243243243243" fill="#000000" />
<rect x="535.135135135135" y="364.864864864865" width="24.3243243243243" height="24.3243243243243" fill="#000000" />
<rect x="535.135135135135" y="389.189189189189" width="24.3243243243243" height="24.3243243243243" fill="#000000" />
<rect x="535.135135135135" y="413.513513513513" width="24.3243243243243" height="24.3243243243243" fill="#000000" />
<rect x="535.135135135135" y="437.837837837838" width="24.3243243243243" height="24.3243243243243" fill="#000000" />
<rect x="535.135135135135" y="510.810810810811" width="24.3243243243243" height="24.3243243243243" fill="#000000" />
<rect x="535.135135135135" y="535.135135135135" width="24.3243243243243" height="24.3243243243243" fill="#000000" />
<rect x="535.135135135135" y="559.459459459459" width="24.3243243243243" height="24.3243243243243" fill="#000000" />
<rect x="535.135135135135" y="583.783783783784" width="24.3243243243243" height="24.3243243243243" fill="#000000" />
<rect x="535.135135135135" y="608.108108108108" width="24.3243243243243" height="24.3243243243243" fill="#000000" />
<rect x="535.135135135135" y="681.081081081081" width="24.3243243243243" height="24.3243243243243" fill="#000000" />
<rect x="535.135135135135" y="778.378378378378" width="24.3243243243243" height="24.3243243243243" fill="#000000" />
<rect x="535.135135135135" y="802.702702702703" width="24.3243243243243" height="24.3243243243243" fill="#000000" />
<rect x="535.135135135135" y="851.351351351351" width="24.3243243243243" height="24.3243243243243" fill="#000000" />
<rect x="535.135135135135" y="875.675675675676" width="24.3243243243243" height="24.3243243243243" fill="#000000" />
<rect x="559.459459459459" y="0" width="24.3243243243243" height="24.3243243243243" fill="#000000" />
<rect x="559.459459459459" y="72.972972972973" width="24.3243243243243" height="24.3243243243243" fill="#000000" />
<rect x="559.459459459459" y="170.27027027027" width="24.3243243243243" height="24.3243243243243" fill="#000000" />
<rect x="559.459459459459" y="218.918918918919" width="24.3243243243243" height="24.3243243243243" fill="#000000" />
<rect x="559.459459459459" y="243.243243243243" width="24.3243243243243" height="24.3243243243243" fill="#000000" />
<rect x="559.459459459459" y="267.567567567568" width="24.3243243243243" height="24.3243243243243" fill="#000000" />
<rect x="559.459459459459" y="316.216216216216" width="24.3243243243243" height="24.3243243243243" fill="#000000" />
<rect x="559.459459459459" y="340.540540540541" width="24.3243243243243" height="24.3243243243243" fill="#000000" />
<rect x="559.459459459459" y="364.864864864865" width="24.3243243243243" height="24.3243243243243" fill="#000000" />
<rect x="559.459459459459" y="389.189189189189" width="24.3243243243243" height="24.3243243243243" fill="#000000" />
<rect x="559.459459459459" y="413.513513513513" width="24.3243243243243" height="24.3243243243243" fill="#000000" />
<rect x="559.459459459459" y="437.837837837838" width="24.3243243243243" height="24.3243243243243" fill="#000000" />
<rect x="559.459459459459" y="462.162162162162" width="24.3243243243243" height="24.3243243243243" fill="#000000" />
<rect x="559.459459459459" y="510.810810810811" width="24.3243243243243" height="24.3243243243243" fill="#000000" />
<rect x="559.459459459459" y="535.135135135135" width="24.3243243243243" height="24.3243243243243" fill="#000000" />
<rect x="559.459459459459" y="559.459459459459" width="24.3243243243243" height="24.3243243243243" fill="#000000" />
<rect x="559.459459459459" y="583.783783783784" width="24.3243243243243" height="24.3243243243243" fill="#000000" />
<rect x="559.459459459459" y="608.108108108108" width="24.3243243243243" height="24.3243243243243" fill="#000000" />
<rect x="559.459459459459" y="632.432432432432" width="24.3243243243243" height="24.3243243243243" fill="#000000" />
<rect x="559.459459459459" y="705.405405405405" width="24.3243243243243" height="24.3243243243243" fill="#000000" />
<rect x="559.459459459459" y="729.72972972973" width="24.3243243243243" height="24.3243243243243" fill="#000000" />
<rect x="559.459459459459" y="754.054054054054" width="24.3243243243243" height="24.3243243243243" fill="#000000" />
<rect x="559.459459459459" y="802.702702702703" width="24.3243243243243" height="24.3243243243243" fill="#000000" />
<rect x="559.459459459459" y="827.027027027027" width="24.3243243243243" height="24.3243243243243" fill="#000000" />
<rect x="559.459459459459" y="851.351351351351" width="24.3243243243243" height="24.3243243243243" fill="#000000" />
<rect x="583.783783783784" y="24.3243243243243" width="24.3243243243243" height="24.3243243243243" fill="#000000" />
<rect x="583.783783783784" y="48.6486486486486" width="24.3243243243243" height="24.3243243243243" fill="#000000" />
<rect x="583.783783783784" y="121.621621621622" width="24.3243243243243" height="24.3243243243243" fill="#000000" />
<rect x="583.783783783784" y="145.945945945946" width="24.3243243243243" height="24.3243243243243" fill="#000000" />
<rect x="583.783783783784" y="218.918918918919" width="24.3243243243243" height="24.3243243243243" fill="#000000" />
<rect x="583.783783783784" y="243.243243243243" width="24.3243243243243" height="24.3243243243243" fill="#000000" />
<rect x="583.783783783784" y="316.216216216216" width="24.3243243243243" height="24.3243243243243" fill="#000000" />
<rect x="583.783783783784" y="340.540540540541" width="24.3243243243243" height="24.3243243243243" fill="#000000" />
<rect x="583.783783783784" y="364.864864864865" width="24.3243243243243" height="24.3243243243243" fill="#000000" />
<rect x="583.783783783784" y="413.513513513513" width="24.3243243243243" height="24.3243243243243" fill="#000000" />
<rect x="583.783783783784" y="462.162162162162" width="24.3243243243243" height="24.3243243243243" fill="#000000" />
<rect x="583.783783783784" y="486.486486486486" width="24.3243243243243" height="24.3243243243243" fill="#000000" />
<rect x="583.783783783784" y="535.135135135135" width="24.3243243243243" height="24.3243243243243" fill="#000000" />
<rect x="583.783783783784" y="583.783783783784" width="24.3243243243243" height="24.3243243243243" fill="#000000" />
<rect x="583.783783783784" y="656.756756756757" width="24.3243243243243" height="24.3243243243243" fill="#000000" />
<rect x="583.783783783784" y="681.081081081081" width="24.3243243243243" height="24.3243243243243" fill="#000000" />
<rect x="583.783783783784" y="705.405405405405" width="24.3243243243243" height="24.3243243243243" fill="#000000" />
<rect x="583.783783783784" y="754.054054054054" width="24.3243243243243" height="24.3243243243243" fill="#000000" />
<rect x="583.783783783784" y="778.378378378378" width="24.3243243243243" height="24.3243243243243" fill="#000000" />
<rect x="583.783783783784" y="827.027027027027" width="24.3243243243243" height="24.3243243243243" fill="#000000" />
<rect x="583.783783783784" y="875.675675675676" width="24.3243243243243" height="24.3243243243243" fill="#000000" />
<rect x="608.108108108108" y="0" width="24.3243243243243" height="24.3243243243243" fill="#000000" />
<rect x="608.108108108108" y="72.972972972973" width="24.3243243243243" height="24.3243243243243" fill="#000000" />
<rect x="608.108108108108" y="97.2972972972973" width="24.3243243243243" height="24.3243243243243" fill="#000000" />
<rect x="608.108108108108" y="121.621621621622" width="24.3243243243243" height="24.3243243243243" fill="#000000" />
<rect x="608.108108108108" y="316.216216216216" width="24.3243243243243" height="24.3243243243243" fill="#000000" />
<rect x="608.108108108108" y="437.837837837838" width="24.3243243243243" height="24.3243243243243" fill="#000000" />
<rect x="608.108108108108" y="510.810810810811" width="24.3243243243243" height="24.3243243243243" fill="#000000" />
<rect x="608.108108108108" y="535.135135135135" width="24.3243243243243" height="24.3243243243243" fill="#000000" />
<rect x="608.108108108108" y="632.432432432432" width="24.3243243243243" height="24.3243243243243" fill="#000000" />
<rect x="608.108108108108" y="827.027027027027" width="24.3243243243243" height="24.3243243243243" fill="#000000" />
<rect x="632.432432432432" y="24.3243243243243" width="24.3243243243243" height="24.3243243243243" fill="#000000" />
<rect x="632.432432432432" y="72.972972972973" width="24.3243243243243" height="24.3243243243243" fill="#000000" />
<rect x="632.432432432432" y="145.945945945946" width="24.3243243243243" height="24.3243243243243" fill="#000000" />
<rect x="632.432432432432" y="194.594594594595" width="24.3243243243243" height="24.3243243243243" fill="#000000" />
<rect x="632.432432432432" y="243.243243243243" width="24.3243243243243" height="24.3243243243243" fill="#000000" />
<rect x="632.432432432432" y="267.567567567568" width="24.3243243243243" height="24.3243243243243" fill="#000000" />
<rect x="632.432432432432" y="316.216216216216" width="24.3243243243243" height="24.3243243243243" fill="#000000" />
<rect x="632.432432432432" y="340.540540540541" width="24.3243243243243" height="24.3243243243243" fill="#000000" />
<rect x="632.432432432432" y="413.513513513513" width="24.3243243243243" height="24.3243243243243" fill="#000000" />
<rect x="632.432432432432" y="437.837837837838" width="24.3243243243243" height="24.3243243243243" fill="#000000" />
<rect x="632.432432432432" y="462.162162162162" width="24.3243243243243" height="24.3243243243243" fill="#000000" />
<rect x="632.432432432432" y="535.135135135135" width="24.3243243243243" height="24.3243243243243" fill="#000000" />
<rect x="632.432432432432" y="559.459459459459" width="24.3243243243243" height="24.3243243243243" fill="#000000" />
<rect x="632.432432432432" y="608.108108108108" width="24.3243243243243" height="24.3243243243243" fill="#000000" />
<rect x="632.432432432432" y="632.432432432432" width="24.3243243243243" height="24.3243243243243" fill="#000000" />
<rect x="632.432432432432" y="705.405405405405" width="24.3243243243243" height="24.3243243243243" fill="#000000" />
<rect x="632.432432432432" y="729.72972972973" width="24.3243243243243" height="24.3243243243243" fill="#000000" />
<rect x="632.432432432432" y="802.702702702703" width="24.3243243243243" height="24.3243243243243" fill="#000000" />
<rect x="632.432432432432" y="827.027027027027" width="24.3243243243243" height="24.3243243243243" fill="#000000" />
<rect x="632.432432432432" y="851.351351351351" width="24.3243243243243" height="24.3243243243243" fill="#000000" />
<rect x="656.756756756757" y="0" width="24.3243243243243" height="24.3243243243243" fill="#000000" />
<rect x="656.756756756757" y="97.2972972972973" width="24.3243243243243" height="24.3243243243243" fill="#000000" />
<rect x="656.756756756757" y="170.27027027027" width="24.3243243243243" height="24.3243243243243" fill="#000000" />
<rect x="656.756756756757" y="218.918918918919" width="24.3243243243243" height="24.3243243243243" fill="#000000" />
<rect x="656.756756756757" y="243.243243243243" width="24.3243243243243" height="24.3243243243243" fill="#000000" />
<rect x="656.756756756757" y="267.567567567568" width="24.3243243243243" height="24.3243243243243" fill="#000000" />
<rect x="656.756756756757" y="291.891891891892" width="24.3243243243243" height="24.3243243243243" fill="#000000" />
<rect x="656.756756756757" y="316.216216216216" width="24.3243243243243" height="24.3243243243243" fill="#000000" />
<rect x="656.756756756757" y="340.540540540541" width="24.3243243243243" height="24.3243243243243" fill="#000000" />
<rect x="656.756756756757" y="364.864864864865" width="24.3243243243243" height="24.3243243243243" fill="#000000" />
<rect x="656.756756756757" y="413.513513513513" width="24.3243243243243" height="24.3243243243243" fill="#000000" />
<rect x="656.756756756757" y="437.837837837838" width="24.3243243243243" height="24.3243243243243" fill="#000000" />
<rect x="656.756756756757" y="486.486486486486" width="24.3243243243243" height="24.3243243243243" fill="#000000" />
<rect x="656.756756756757" y="510.810810810811" width="24.3243243243243" height="24.3243243243243" fill="#000000" />
<rect x="656.756756756757" y="535.135135135135" width="24.3243243243243" height="24.3243243243243" fill="#000000" />
<rect x="656.756756756757" y="608.108108108108" width="24.3243243243243" height="24.3243243243243" fill="#000000" />
<rect x="656.756756756757" y="632.432432432432" width="24.3243243243243" height="24.3243243243243" fill="#000000" />
<rect x="656.756756756757" y="656.756756756757" width="24.3243243243243" height="24.3243243243243" fill="#000000" />
<rect x="656.756756756757" y="705.405405405405" width="24.3243243243243" height="24.3243243243243" fill="#000000" />
<rect x="656.756756756757" y="802.702702702703" width="24.3243243243243" height="24.3243243243243" fill="#000000" />
<rect x="656.756756756757" y="851.351351351351" width="24.3243243243243" height="24.3243243243243" fill="#000000" />
<rect x="681.081081081081" y="0" width="24.3243243243243" height="24.3243243243243" fill="#000000" />
<rect x="681.081081081081" y="24.3243243243243" width="24.3243243243243" height="24.3243243243243" fill="#000000" />
<rect x="681.081081081081" y="72.972972972973" width="24.3243243243243" height="24.3243243243243" fill="#000000" />
<rect x="681.081081081081" y="97.2972972972973" width="24.3243243243243" height="24.3243243243243" fill="#000000" />
<rect x="681.081081081081" y="145.945945945946" width="24.3243243243243" height="24.3243243243243" fill="#000000" />
<rect x="681.081081081081" y="170.27027027027" width="24.3243243243243" height="24.3243243243243" fill="#000000" />
<rect x="681.081081081081" y="194.594594594595" width="24.3243243243243" height="24.3243243243243" fill="#000000" />
<rect x="681.081081081081" y="218.918918918919" width="24.3243243243243" height="24.3243243243243" fill="#000000" />
<rect x="681.081081081081" y="243.243243243243" width="24.3243243243243" height="24.3243243243243" fill="#000000" />
<rect x="681.081081081081" y="267.567567567568" width="24.3243243243243" height="24.3243243243243" fill="#000000" />
<rect x="681.081081081081" y="291.891891891892" width="24.3243243243243" height="24.3243243243243" fill="#000000" />
<rect x="681.081081081081" y="316.216216216216" width="24.3243243243243" height="24.3243243243243" fill="#000000" />
<rect x="681.081081081081" y="413.513513513513" width="24.3243243243243" height="24.3243243243243" fill="#000000" />
<rect x="681.081081081081" y="486.486486486486" width="24.3243243243243" height="24.3243243243243" fill="#000000" />
<rect x="681.081081081081" y="559.459459459459" width="24.3243243243243" height="24.3243243243243" fill="#000000" />
<rect x="681.081081081081" y="608.108108108108" width="24.3243243243243" height="24.3243243243243" fill="#000000" />
<rect x="681.081081081081" y="681.081081081081" width="24.3243243243243" height="24.3243243243243" fill="#000000" />
<rect x="681.081081081081" y="705.405405405405" width="24.3243243243243" height="24.3243243243243" fill="#000000" />
<rect x="681.081081081081" y="729.72972972973" width="24.3243243243243" height="24.3243243243243" fill="#000000" />
<rect x="681.081081081081" y="754.054054054054" width="24.3243243243243" height="24.3243243243243" fill="#000000" />
<rect x="681.081081081081" y="778.378378378378" width="24.3243243243243" height="24.3243243243243" fill="#000000" />
<rect x="681.081081081081" y="802.702702702703" width="24.3243243243243" height="24.3243243243243" fill="#000000" />
<rect x="705.405405405405" y="267.567567567568" width="24.3243243243243" height="24.3243243243243" fill="#000000" />
<rect x="705.405405405405" y="291.891891891892" width="24.3243243243243" height="24.3243243243243" fill="#000000" />
<rect x="705.405405405405" y="462.162162162162" width="24.3243243243243" height="24.3243243243243" fill="#000000" />
<rect x="705.405405405405" y="486.486486486486" width="24.3243243243243" height="24.3243243243243" fill="#000000" />
<rect x="705.405405405405" y="535.135135135135" width="24.3243243243243" height="24.3243243243243" fill="#000000" />
<rect x="705.405405405405" y="583.783783783784" width="24.3243243243243" height="24.3243243243243" fill="#000000" />
<rect x="705.405405405405" y="681.081081081081" width="24.3243243243243" height="24.3243243243243" fill="#000000" />
<rect x="705.405405405405" y="778.378378378378" width="24.3243243243243" height="24.3243243243243" fill="#000000" />
<rect x="705.405405405405" y="802.702702702703" width="24.3243243243243" height="24.3243243243243" fill="#000000" />
<rect x="705.405405405405" y="827.027027027027" width="24.3243243243243" height="24.3243243243243" fill="#000000" />
<rect x="705.405405405405" y="875.675675675676" width="24.3243243243243" height="24.3243243243243" fill="#000000" />
<rect x="729.72972972973" y="0" width="24.3243243243243" height="24.3243243243243" fill="#000000" />
<rect x="729.72972972973" y="24.3243243243243" width="24.3243243243243" height="24.3243243243243" fill="#000000" />
<rect x="729.72972972973" y="48.6486486486486" width="24.3243243243243" height="24.3243243243243" fill="#000000" />
<rect x="729.72972972973" y="72.972972972973" width="24.3243243243243" height="24.3243243243243" fill="#000000" />
<rect x="729.72972972973" y="97.2972972972973" width="24.3243243243243" height="24.3243243243243" fill="#000000" />
<rect x="729.72972972973" y="121.621621621622" width="24.3243243243243" height="24.3243243243243" fill="#000000" />
<rect x="729.72972972973" y="145.945945945946" width="24.3243243243243" height="24.3243243243243" fill="#000000" />
<rect x="729.72972972973" y="243.243243243243" width="24.3243243243243" height="24.3243243243243" fill="#000000" />
<rect x="729.72972972973" y="291.891891891892" width="24.3243243243243" height="24.3243243243243" fill="#000000" />
<rect x="729.72972972973" y="389.189189189189" width="24.3243243243243" height="24.3243243243243" fill="#000000" />
<rect x="729.72972972973" y="437.837837837838" width="24.3243243243243" height="24.3243243243243" fill="#000000" />
<rect x="729.72972972973" y="462.162162162162" width="24.3243243243243" height="24.3243243243243" fill="#000000" />
<rect x="729.72972972973" y="486.486486486486" width="24.3243243243243" height="24.3243243243243" fill="#000000" />
<rect x="729.72972972973" y="559.459459459459" width="24.3243243243243" height="24.3243243243243" fill="#000000" />
<rect x="729.72972972973" y="583.783783783784" width="24.3243243243243" height="24.3243243243243" fill="#000000" />
<rect x="729.72972972973" y="632.432432432432" width="24.3243243243243" height="24.3243243243243" fill="#000000" />
<rect x="729.72972972973" y="656.756756756757" width="24.3243243243243" height="24.3243243243243" fill="#000000" />
<rect x="729.72972972973" y="681.081081081081" width="24.3243243243243" height="24.3243243243243" fill="#000000" />
<rect x="729.72972972973" y="729.72972972973" width="24.3243243243243" height="24.3243243243243" fill="#000000" />
<rect x="729.72972972973" y="778.378378378378" width="24.3243243243243" height="24.3243243243243" fill="#000000" />
<rect x="729.72972972973" y="802.702702702703" width="24.3243243243243" height="24.3243243243243" fill="#000000" />
<rect x="729.72972972973" y="827.027027027027" width="24.3243243243243" height="24.3243243243243" fill="#000000" />
<rect x="729.72972972973" y="851.351351351351" width="24.3243243243243" height="24.3243243243243" fill="#000000" />
<rect x="729.72972972973" y="875.675675675676" width="24.3243243243243" height="24.3243243243243" fill="#000000" />
<rect x="754.054054054054" y="0" width="24.3243243243243" height="24.3243243243243" fill="#000000" />
<rect x="754.054054054054" y="145.945945945946" width="24.3243243243243" height="24.3243243243243" fill="#000000" />
<rect x="754.054054054054" y="194.594594594595" width="24.3243243243243" height="24.3243243243243" fill="#000000" />
<rect x="754.054054054054" y="243.243243243243" width="24.3243243243243" height="24.3243243243243" fill="#000000" />
<rect x="754.054054054054" y="267.567567567568" width="24.3243243243243" height="24.3243243243243" fill="#000000" />
<rect x="754.054054054054" y="291.891891891892" width="24.3243243243243" height="24.3243243243243" fill="#000000" />
<rect x="754.054054054054" y="340.540540540541" width="24.3243243243243" height="24.3243243243243" fill="#000000" />
<rect x="754.054054054054" y="364.864864864865" width="24.3243243243243" height="24.3243243243243" fill="#000000" />
<rect x="754.054054054054" y="389.189189189189" width="24.3243243243243" height="24.3243243243243" fill="#000000" />
<rect x="754.054054054054" y="437.837837837838" width="24.3243243243243" height="24.3243243243243" fill="#000000" />
<rect x="754.054054054054" y="462.162162162162" width="24.3243243243243" height="24.3243243243243" fill="#000000" />
<rect x="754.054054054054" y="486.486486486486" width="24.3243243243243" height="24.3243243243243" fill="#000000" />
<rect x="754.054054054054" y="535.135135135135" width="24.3243243243243" height="24.3243243243243" fill="#000000" />
<rect x="754.054054054054" y="559.459459459459" width="24.3243243243243" height="24.3243243243243" fill="#000000" />
<rect x="754.054054054054" y="583.783783783784" width="24.3243243243243" height="24.3243243243243" fill="#000000" />
<rect x="754.054054054054" y="656.756756756757" width="24.3243243243243" height="24.3243243243243" fill="#000000" />
<rect x="754.054054054054" y="681.081081081081" width="24.3243243243243" height="24.3243243243243" fill="#000000" />
<rect x="754.054054054054" y="778.378378378378" width="24.3243243243243" height="24.3243243243243" fill="#000000" />
<rect x="754.054054054054" y="802.702702702703" width="24.3243243243243" height="24.3243243243243" fill="#000000" />
<rect x="754.054054054054" y="851.351351351351" width="24.3243243243243" height="24.3243243243243" fill="#000000" />
<rect x="778.378378378378" y="0" width="24.3243243243243" height="24.3243243243243" fill="#000000" />
<rect x="778.378378378378" y="48.6486486486486" width="24.3243243243243" height="24.3243243243243" fill="#000000" />
<rect x="778.378378378378" y="72.972972972973" width="24.3243243243243" height="24.3243243243243" fill="#000000" />
<rect x="778.378378378378" y="97.2972972972973" width="24.3243243243243" height="24.3243243243243" fill="#000000" />
<rect x="778.378378378378" y="145.945945945946" width="24.3243243243243" height="24.3243243243243" fill="#000000" />
<rect x="778.378378378378" y="218.918918918919" width="24.3243243243243" height="24.3243243243243" fill="#000000" />
<rect x="778.378378378378" y="243.243243243243" width="24.3243243243243" height="24.3243243243243" fill="#000000" />
<rect x="778.378378378378" y="316.216216216216" width="24.3243243243243" height="24.3243243243243" fill="#000000" />
<rect x="778.378378378378" y="340.540540540541" width="24.3243243243243" height="24.3243243243243" fill="#000000" />
<rect x="778.378378378378" y="364.864864864865" width="24.3243243243243" height="24.3243243243243" fill="#000000" />
<rect x="778.378378378378" y="413.513513513513" width="24.3243243243243" height="24.3243243243243" fill="#000000" />
<rect x="778.378378378378" y="437.837837837838" width="24.3243243243243" height="24.3243243243243" fill="#000000" />
<rect x="778.378378378378" y="462.162162162162" width="24.3243243243243" height="24.3243243243243" fill="#000000" />
<rect x="778.378378378378" y="510.810810810811" width="24.3243243243243" height="24.3243243243243" fill="#000000" />
<rect x="778.378378378378" y="535.135135135135" width="24.3243243243243" height="24.3243243243243" fill="#000000" />
<rect x="778.378378378378" y="608.108108108108" width="24.3243243243243" height="24.3243243243243" fill="#000000" />
<rect x="778.378378378378" y="632.432432432432" width="24.3243243243243" height="24.3243243243243" fill="#000000" />
<rect x="778.378378378378" y="656.756756756757" width="24.3243243243243" height="24.3243243243243" fill="#000000" />
<rect x="778.378378378378" y="681.081081081081" width="24.3243243243243" height="24.3243243243243" fill="#000000" />
<rect x="778.378378378378" y="705.405405405405" width="24.3243243243243" height="24.3243243243243" fill="#000000" />
<rect x="778.378378378378" y="729.72972972973" width="24.3243243243243" height="24.3243243243243" fill="#000000" />
<rect x="778.378378378378" y="754.054054054054" width="24.3243243243243" height="24.3243243243243" fill="#000000" />
<rect x="778.378378378378" y="778.378378378378" width="24.3243243243243" height="24.3243243243243" fill="#000000" />
<rect x="778.378378378378" y="875.675675675676" width="24.3243243243243" height="24.3243243243243" fill="#000000" />
<rect x="802.702702702703" y="0" width="24.3243243243243" height="24.3243243243243" fill="#000000" />
<rect x="802.702702702703" y="48.6486486486486" width="24.3243243243243" height="24.3243243243243" fill="#000000" />
<rect x="802.702702702703" y="72.972972972973" width="24.3243243243243" height="24.3243243243243" fill="#000000" />
<rect x="802.702702702703" y="97.2972972972973" width="24.3243243243243" height="24.3243243243243" fill="#000000" />
<rect x="802.702702702703" y="145.945945945946" width="24.3243243243243" height="24.3243243243243" fill="#000000" />
<rect x="802.702702702703" y="194.594594594595" width="24.3243243243243" height="24.3243243243243" fill="#000000" />
<rect x="802.702702702703" y="243.243243243243" width="24.3243243243243" height="24.3243243243243" fill="#000000" />
<rect x="802.702702702703" y="267.567567567568" width="24.3243243243243" height="24.3243243243243" fill="#000000" />
<rect x="802.702702702703" y="316.216216216216" width="24.3243243243243" height="24.3243243243243" fill="#000000" />
<rect x="802.702702702703" y="364.864864864865" width="24.3243243243243" height="24.3243243243243" fill="#000000" />
<rect x="802.702702702703" y="413.513513513513" width="24.3243243243243" height="24.3243243243243" fill="#000000" />
<rect x="802.702702702703" y="510.810810810811" width="24.3243243243243" height="24.3243243243243" fill="#000000" />
<rect x="802.702702702703" y="535.135135135135" width="24.3243243243243" height="24.3243243243243" fill="#000000" />
<rect x="802.702702702703" y="583.783783783784" width="24.3243243243243" height="24.3243243243243" fill="#000000" />
<rect x="802.702702702703" y="632.432432432432" width="24.3243243243243" height="24.3243243243243" fill="#000000" />
<rect x="802.702702702703" y="778.378378378378" width="24.3243243243243" height="24.3243243243243" fill="#000000" />
<rect x="802.702702702703" y="802.702702702703" width="24.3243243243243" height="24.3243243243243" fill="#000000" />
<rect x="802.702702702703" y="827.027027027027" width="24.3243243243243" height="24.3243243243243" fill="#000000" />
<rect x="827.027027027027" y="0" width="24.3243243243243" height="24.3243243243243" fill="#000000" />
<rect x="827.027027027027" y="48.6486486486486" width="24.3243243243243" height="24.3243243243243" fill="#000000" />
<rect x="827.027027027027" y="72.972972972973" width="24.3243243243243" height="24.3243243243243" fill="#000000" />
<rect x="827.027027027027" y="97.2972972972973" width="24.3243243243243" height="24.3243243243243" fill="#000000" />
<rect x="827.027027027027" y="145.945945945946" width="24.3243243243243" height="24.3243243243243" fill="#000000" />
<rect x="827.027027027027" y="194.594594594595" width="24.3243243243243" height="24.3243243243243" fill="#000000" />
<rect x="827.027027027027" y="218.918918918919" width="24.3243243243243" height="24.3243243243243" fill="#000000" />
<rect x="827.027027027027" y="267.567567567568" width="24.3243243243243" height="24.3243243243243" fill="#000000" />
<rect x="827.027027027027" y="291.891891891892" width="24.3243243243243" height="24.3243243243243" fill="#000000" />
<rect x="827.027027027027" y="316.216216216216" width="24.3243243243243" height="24.3243243243243" fill="#000000" />
<rect x="827.027027027027" y="364.864864864865" width="24.3243243243243" height="24.3243243243243" fill="#000000" />
<rect x="827.027027027027" y="389.189189189189" width="24.3243243243243" height="24.3243243243243" fill="#000000" />
<rect x="827.027027027027" y="413.513513513513" width="24.3243243243243" height="24.3243243243243" fill="#000000" />
<rect x="827.027027027027" y="462.162162162162" width="24.3243243243243" height="24.3243243243243" fill="#000000" />
<rect x="827.027027027027" y="486.486486486486" width="24.3243243243243" height="24.3243243243243" fill="#000000" />
<rect x="827.027027027027" y="535.135135135135" width="24.3243243243243" height="24.3243243243243" fill="#000000" />
<rect x="827.027027027027" y="559.459459459459" width="24.3243243243243" height="24.3243243243243" fill="#000000" />
<rect x="827.027027027027" y="583.783783783784" width="24.3243243243243" height="24.3243243243243" fill="#000000" />
<rect x="827.027027027027" y="656.756756756757" width="24.3243243243243" height="24.3243243243243" fill="#000000" />
<rect x="827.027027027027" y="681.081081081081" width="24.3243243243243" height="24.3243243243243" fill="#000000" />
<rect x="827.027027027027" y="705.405405405405" width="24.3243243243243" height="24.3243243243243" fill="#000000" />
<rect x="827.027027027027" y="729.72972972973" width="24.3243243243243" height="24.3243243243243" fill="#000000" />
<rect x="827.027027027027" y="754.054054054054" width="24.3243243243243" height="24.3243243243243" fill="#000000" />
<rect x="827.027027027027" y="778.378378378378" width="24.3243243243243" height="24.3243243243243" fill="#000000" />
<rect x="827.027027027027" y="851.351351351351" width="24.3243243243243" height="24.3243243243243" fill="#000000" />
<rect x="827.027027027027" y="875.675675675676" width="24.3243243243243" height="24.3243243243243" fill="#000000" />
<rect x="851.351351351351" y="0" width="24.3243243243243" height="24.3243243243243" fill="#000000" />
<rect x="851.351351351351" y="145.945945945946" width="24.3243243243243" height="24.3243243243243" fill="#000000" />
<rect x="851.351351351351" y="194.594594594595" width="24.3243243243243" height="24.3243243243243" fill="#000000" />
<rect x="851.351351351351" y="218.918918918919" width="24.3243243243243" height="24.3243243243243" fill="#000000" />
<rect x="851.351351351351" y="243.243243243243" width="24.3243243243243" height="24.3243243243243" fill="#000000" />
<rect x="851.351351351351" y="316.216216216216" width="24.3243243243243" height="24.3243243243243" fill="#000000" />
<rect x="851.351351351351" y="364.864864864865" width="24.3243243243243" height="24.3243243243243" fill="#000000" />
<rect x="851.351351351351" y="413.513513513513" width="24.3243243243243" height="24.3243243243243" fill="#000000" />
<rect x="851.351351351351" y="462.162162162162" width="24.3243243243243" height="24.3243243243243" fill="#000000" />
<rect x="851.351351351351" y="486.486486486486" width="24.3243243243243" height="24.3243243243243" fill="#000000" />
<rect x="851.351351351351" y="510.810810810811" width="24.3243243243243" height="24.3243243243243" fill="#000000" />
<rect x="851.351351351351" y="559.459459459459" width="24.3243243243243" height="24.3243243243243" fill="#000000" />
<rect x="851.351351351351" y="583.783783783784" width="24.3243243243243" height="24.3243243243243" fill="#000000" />
<rect x="851.351351351351" y="608.108108108108" width="24.3243243243243" height="24.3243243243243" fill="#000000" />
<rect x="851.351351351351" y="656.756756756757" width="24.3243243243243" height="24.3243243243243" fill="#000000" />
<rect x="851.351351351351" y="754.054054054054" width="24.3243243243243" height="24.3243243243243" fill="#000000" />
<rect x="851.351351351351" y="802.702702702703" width="24.3243243243243" height="24.3243243243243" fill="#000000" />
<rect x="851.351351351351" y="851.351351351351" width="24.3243243243243" height="24.3243243243243" fill="#000000" />
<rect x="851.351351351351" y="875.675675675676" width="24.3243243243243" height="24.3243243243243" fill="#000000" />
<rect x="875.675675675676" y="0" width="24.3243243243243" height="24.3243243243243" fill="#000000" />
<rect x="875.675675675676" y="24.3243243243243" width="24.3243243243243" height="24.3243243243243" fill="#000000" />
<rect x="875.675675675676" y="48.6486486486486" width="24.3243243243243" height="24.3243243243243" fill="#000000" />
<rect x="875.675675675676" y="72.972972972973" width="24.3243243243243" height="24.3243243243243" fill="#000000" />
<rect x="875.675675675676" y="97.2972972972973" width="24.3243243243243" height="24.3243243243243" fill="#000000" />
<rect x="875.675675675676" y="121.621621621622" width="24.3243243243243" height="24.3243243243243" fill="#000000" />
<rect x="875.675675675676" y="145.945945945946" width="24.3243243243243" height="24.3243243243243" fill="#000000" />
<rect x="875.675675675676" y="194.594594594595" width="24.3243243243243" height="24.3243243243243" fill="#000000" />
<rect x="875.675675675676" y="267.567567567568" width="24.3243243243243" height="24.3243243243243" fill="#000000" />
<rect x="875.675675675676" y="291.891891891892" width="24.3243243243243" height="24.3243243243243" fill="#000000" />
<rect x="875.675675675676" y="389.189189189189" width="24.3243243243243" height="24.3243243243243" fill="#000000" />
<rect x="875.675675675676" y="486.486486486486" width="24.3243243243243" height="24.3243243243243" fill="#000000" />
<rect x="875.675675675676" y="583.783783783784" width="24.3243243243243" height="24.3243243243243" fill="#000000" />
<rect x="875.675675675676" y="778.378378378378" width="24.3243243243243" height="24.3243243243243" fill="#000000" />
<rect x="875.675675675676" y="802.702702702703" width="24.3243243243243" height="24.3243243243243" fill="#000000" />
<rect x="875.675675675676" y="875.675675675676" width="24.3243243243243" height="24.3243243243243" fill="#000000" />
</svg>
