<?xml version="1.0" encoding="utf-8"?>
<svg viewBox="181.928 0 789.628 477.084" xmlns="http://www.w3.org/2000/svg">
  <path d="M1078.5806,512.254H336.75838a7.20537,7.20537,0,0,1-7.1975-7.1975V66.4889a7.20537,7.20537,0,0,1,7.1975-7.1975H1078.5806a7.20536,7.20536,0,0,1,7.19749,7.1975V505.05649A7.20536,7.20536,0,0,1,1078.5806,512.254ZM336.75838,62.1704a4.32322,4.32322,0,0,0-4.3185,4.3185V505.05649a4.32322,4.32322,0,0,0,4.3185,4.3185H1078.5806a4.32321,4.32321,0,0,0,4.31849-4.3185V66.4889a4.32321,4.32321,0,0,0-4.31849-4.3185Z" transform="matrix(1, 0, 0, 1, -114.221909, -59.291401)" fill="#e6e6e6"/>
  <path id="bbcc4262-a9b8-4c1e-bf70-e1245b5187b9-579" data-name="a332a05d-d774-4fd2-8531-ab97682a63e9" d="M636.16347,94.31766a5.707,5.707,0,0,0,0,11.4124H779.236a5.707,5.707,0,0,0,.20407-11.41212l-.01669-.00028q-.09366-.0016-.18738,0Z" transform="matrix(1, 0, 0, 1, -114.221909, -59.291401)" style="fill: rgb(5, 122, 111);"/>
  <path d="M811.68137,92.72878a1.12288,1.12288,0,0,0-.00012,1.5879l.00012.00009,4.82024,4.82028H804.61537a1.12287,1.12287,0,0,0,0,2.24573h11.88624l-4.82024,4.82029a1.12285,1.12285,0,0,0,1.58793,1.588h0l6.73717-6.73714a1.12294,1.12294,0,0,0,0-1.588l-6.73717-6.73714a1.12278,1.12278,0,0,0-1.58787,0Z" transform="matrix(1, 0, 0, 1, -114.221909, -59.291401)" fill="#e6e6e6"/>
  <path d="M603.6576,92.72878a1.12283,1.12283,0,0,1,.00009,1.5879l-.00009.00009-4.82023,4.82028h11.88624a1.12287,1.12287,0,1,1,.00266,2.24573h-11.8889l4.82023,4.82029a1.12286,1.12286,0,1,1-1.58795,1.588h0l-6.73714-6.73714a1.12294,1.12294,0,0,1,0-1.588l6.73714-6.73714a1.12284,1.12284,0,0,1,1.5879-.00006Z" transform="matrix(1, 0, 0, 1, -114.221909, -59.291401)" fill="#e6e6e6"/>
  <path d="M329.13147,536.41184a32.89015,32.89015,0,1,1,32.89016-32.89015A32.89017,32.89017,0,0,1,329.13147,536.41184Z" transform="matrix(1, 0, 0, 1, -114.221909, -59.291401)" style="fill: rgb(10, 197, 179);"/>
  <path d="M342.10905,500.27734h-9.73313v-9.73326a3.24445,3.24445,0,1,0-6.4889,0v9.73326h-9.73326a3.2444,3.2444,0,1,0,0,6.4888H325.887v9.73325a3.24445,3.24445,0,0,0,6.4889,0v-9.73325h9.73313a3.2444,3.2444,0,1,0,0-6.4888Z" transform="matrix(1, 0, 0, 1, -114.221909, -59.291401)" fill="#fff"/>
  <rect x="275.31813" y="93.44997" width="98.84565" height="67.17666" style="fill: rgb(217, 243, 238);"/>
  <rect x="409.67144" y="93.44997" width="98.84565" height="67.17666" style="fill: rgb(217, 243, 238);"/>
  <rect x="544.02476" y="93.44997" width="98.84565" height="67.17666" style="fill: rgb(217, 243, 238);"/>
  <rect x="678.37807" y="93.44997" width="98.84565" height="67.17666" style="fill: rgb(217, 243, 238);"/>
  <rect x="812.73138" y="93.44997" width="98.84565" height="67.17666" style="fill: rgb(217, 243, 238);"/>
  <rect x="275.68058" y="211.48895" width="98.84565" height="67.17666" style="fill: rgb(217, 243, 238);"/>
  <rect x="410.03389" y="211.48895" width="98.84565" height="67.17666" style="fill: rgb(217, 243, 238);"/>
  <rect x="544.38721" y="211.48895" width="98.84565" height="67.17666" style="fill: rgb(217, 243, 238);"/>
  <rect x="678.74052" y="211.48895" width="98.84565" height="67.17666" style="fill: rgb(217, 243, 238);"/>
  <rect x="813.09383" y="211.48895" width="98.84565" height="67.17666" style="fill: rgb(217, 243, 238);"/>
  <rect x="276.04303" y="329.52793" width="98.84565" height="67.17666" style="fill: rgb(217, 243, 238);"/>
  <rect x="410.39634" y="329.52793" width="98.84565" height="67.17666" style="fill: rgb(217, 243, 238);"/>
  <rect x="544.74966" y="329.52793" width="98.84565" height="67.17666" style="fill: rgb(217, 243, 238);"/>
  <rect x="679.10297" y="329.52793" width="98.84565" height="67.17666" style="fill: rgb(217, 243, 238);"/>
  <rect x="813.45628" y="329.52793" width="98.84565" height="67.17666" style="fill: rgb(217, 243, 238);"/>
  <circle cx="564.5402" cy="114.56263" r="12.47566" style="fill: rgb(10, 197, 179);"/>
  <circle cx="428.26756" cy="232.60161" r="12.47566" style="fill: rgb(10, 197, 179);"/>
  <circle cx="564.5402" cy="350.64059" r="12.47566" style="fill: rgb(10, 197, 179);"/>
  <circle cx="701.77251" cy="232.60161" r="12.47566" style="fill: rgb(5, 122, 111);"/>
  <circle cx="835.16616" cy="232.60161" r="12.47566" style="fill: rgb(5, 122, 111);"/>
  <circle cx="428.26756" cy="350.64059" r="12.47566" style="fill: rgb(10, 197, 179);"/>
</svg>